<svg width="789" height="791" viewBox="0 0 789 791" fill="none" xmlns="http://www.w3.org/2000/svg">
<g clip-path="url(#clip0_44_2)">
<path d="M613.77 177.9C693 247.24 779.71 319.11 788.16 399.22C796.83 479.54 726.86 568.11 647.6 617.79C568.34 667.47 479.76 678.24 373.22 695.79C266.9 713.54 142.82 738.27 71 688.6C-0.819954 638.93 -20.53 514.84 24.28 435.6C69.09 356.36 178.54 322.07 250.41 252.52C322.28 183.19 356.52 78.77 409.58 60.16C462.64 41.35 534.51 108.57 613.77 177.9Z" fill="#F2F2F2"/>
<path d="M724.6 31.63H483.88V213.89H724.6V31.63Z" fill="#D7E0FF"/>
<path d="M684.33 65.9H613.84V192.28H684.33V65.9Z" fill="#EAF0FF"/>
<path d="M590.63 93.7C590.632 99.4504 588.929 105.072 585.735 109.854C582.542 114.636 578.002 118.364 572.689 120.565C567.377 122.767 561.531 123.343 555.891 122.222C550.251 121.101 545.071 118.332 541.005 114.266C536.939 110.199 534.17 105.019 533.048 99.3788C531.927 93.7389 532.503 87.893 534.705 82.5808C536.906 77.2685 540.634 72.7285 545.416 69.535C550.198 66.3415 555.82 64.638 561.57 64.64C569.277 64.64 576.669 67.7017 582.119 73.1515C587.569 78.6013 590.63 85.9928 590.63 93.7Z" fill="#02232C"/>
<path d="M727.51 404C727.51 418.064 723.34 431.813 715.526 443.507C707.712 455.201 696.606 464.315 683.613 469.697C670.619 475.079 656.321 476.487 642.527 473.744C628.733 471 616.063 464.227 606.118 454.282C596.173 444.337 589.4 431.667 586.656 417.873C583.913 404.079 585.321 389.781 590.703 376.787C596.085 363.794 605.199 352.688 616.893 344.874C628.587 337.061 642.336 332.89 656.4 332.89C675.26 332.89 693.347 340.382 706.682 353.718C720.018 367.053 727.51 385.14 727.51 404Z" fill="white"/>
<path d="M771.56 271.93H619.19V424.3H771.56V271.93Z" stroke="#B2C3FB" stroke-width="3" stroke-linecap="round" stroke-linejoin="round"/>
<path d="M369.36 788.66H747.44" stroke="#1B3C87" stroke-width="3.69" stroke-linecap="round" stroke-linejoin="round"/>
<path d="M1.8501 788.66H280.44" stroke="#1B3C87" stroke-width="3.69" stroke-linecap="round" stroke-linejoin="round"/>
<path d="M436.62 274.66L435.07 282.12L424.67 285.36C424.67 285.36 419.52 269.3 418.81 265.67C413.81 269.4 384.99 277.48 380.02 278.2C379.33 274.33 379.33 240.79 407.29 240.79C431.92 240.79 442.96 265.46 443.61 268.35C442.17 269.19 436.61 271.25 436.61 274.66" fill="#34140E"/>
<path d="M443.53 339.23C437.28 339.23 391.92 385 390.06 394.58L375.45 470.17L451.12 449L455.56 352.72L444.78 339.2L443.53 339.23Z" fill="#02232C"/>
<path d="M350.06 472.13C349.93 466.86 393.37 329.72 398.27 325.06C399.879 323.436 401.812 322.169 403.944 321.342C406.075 320.515 408.357 320.146 410.64 320.26C412.8 320.36 423.18 325.26 425.37 330.43C421.63 339.29 412.62 344.21 412.62 344.21L395.09 452.53L350.06 472.13Z" fill="white"/>
<path d="M403 554.37L465.78 632.08L435.33 662.69L343.17 582.12L364.97 552.12L403 554.37Z" fill="#709C8D"/>
<path d="M386.46 693.47C378 685.78 278.75 562.15 278.75 546.85C278.75 512.74 317.45 500.65 328.01 497.99C342.56 496.67 407.1 491.27 417.25 491.69C424.57 499.62 509.57 517.92 521.89 516.34C521.89 522.51 512.09 565.65 442.57 565.65C435.29 565.65 380.48 563.46 379.46 563.46C379.46 576.29 414.59 659.8 417.94 665.46" fill="#709C8D"/>
<path d="M476.4 316.87C532.67 316.87 544.85 418.38 544.85 447.19C544.85 483.92 529.95 513.27 522.85 516.02C502.74 523.75 428.92 498.43 424.24 486.44C401.42 428.04 438.98 316.87 476.44 316.87" fill="#02232C"/>
<path d="M428.36 247.38C433.03 251.577 436.887 256.597 439.74 262.19C440.233 263.15 440.693 264.11 441.12 265.07" stroke="#1B3C87" stroke-width="3.69" stroke-linecap="round" stroke-linejoin="round"/>
<path d="M381.82 292C371.31 271.58 375.76 248.36 391.76 240.13C396.963 237.5 402.874 236.613 408.62 237.6" stroke="#1B3C87" stroke-width="3.69" stroke-linecap="round" stroke-linejoin="round"/>
<path d="M437.37 308.18C435.228 310.587 432.662 312.58 429.8 314.06C418.88 319.68 405.4 316.86 394.61 308.01" stroke="#1B3C87" stroke-width="3.69" stroke-linecap="round" stroke-linejoin="round"/>
<path d="M433.05 271.08C433.693 269.462 434.764 268.049 436.148 266.994C437.533 265.938 439.178 265.279 440.909 265.088C442.639 264.897 444.389 265.18 445.971 265.908C447.553 266.636 448.906 267.78 449.887 269.219C450.868 270.657 451.438 272.336 451.537 274.074C451.636 275.812 451.26 277.544 450.45 279.085C449.639 280.626 448.425 281.917 446.936 282.82C445.447 283.723 443.741 284.203 442 284.21C440.552 284.201 439.125 283.859 437.83 283.21" stroke="#1B3C87" stroke-width="3.69" stroke-linecap="round" stroke-linejoin="round"/>
<path d="M441.15 341.18C439.74 336.13 434.67 320.57 428.34 314.75" stroke="#1B3C87" stroke-width="3.69" stroke-linecap="round" stroke-linejoin="round"/>
<path d="M446.2 286.61C448.15 293.17 465.78 316.82 470.12 320.1C469.86 322.95 464.25 328.46 457.94 333.1" stroke="#1B3C87" stroke-width="3.69" stroke-linecap="round" stroke-linejoin="round"/>
<path d="M423.67 281L431.5 278.57L433.05 271.1" stroke="#1B3C87" stroke-width="3.69" stroke-linecap="round" stroke-linejoin="round"/>
<path d="M402.61 267.32C408.43 265.38 413.4 263.45 415.24 262.09C415.75 264.73 418.62 273.95 420.14 278.77" stroke="#1B3C87" stroke-width="3.69" stroke-linecap="round" stroke-linejoin="round"/>
<path d="M376.44 274.62C378.36 274.34 383.81 272.97 390.08 271.18" stroke="#1B3C87" stroke-width="3.69" stroke-linecap="round" stroke-linejoin="round"/>
<path d="M433.75 492.2C425.85 488.26 420.36 484.43 419.19 481.43C412.19 463.43 410.86 440.38 413.54 417.13" stroke="#1B3C87" stroke-width="3.69" stroke-linecap="round" stroke-linejoin="round"/>
<path d="M532.05 384.27C537.91 407.77 539.84 430.72 539.84 442.18C539.84 478.92 524.94 508.27 517.84 511.01C508.41 514.64 487.19 511.01 466.84 504.87" stroke="#1B3C87" stroke-width="3.69" stroke-linecap="round" stroke-linejoin="round"/>
<path d="M463.92 313.3C466.305 312.368 468.84 311.88 471.4 311.86C486.23 311.86 498 318.92 507.29 329.86" stroke="#1B3C87" stroke-width="3.69" stroke-linecap="round" stroke-linejoin="round"/>
<path d="M424.76 368.59C428.594 357.446 433.623 346.751 439.76 336.69" stroke="#1B3C87" stroke-width="3.69" stroke-linecap="round" stroke-linejoin="round"/>
<path d="M389.77 327.49C391.43 323.29 392.65 320.64 393.26 320.05C394.869 318.426 396.802 317.159 398.933 316.332C401.065 315.505 403.347 315.136 405.63 315.25C407.79 315.35 418.17 320.25 420.36 325.42" stroke="#1B3C87" stroke-width="3.69" stroke-linecap="round" stroke-linejoin="round"/>
<path d="M357.3 424.3C364.67 400.74 374.03 371.93 381.41 350.55" stroke="#1B3C87" stroke-width="3.69" stroke-linecap="round" stroke-linejoin="round"/>
<path d="M345.05 466.41C345.05 465.41 346.52 459.88 348.99 451.49" stroke="#1B3C87" stroke-width="3.69" stroke-linecap="round" stroke-linejoin="round"/>
<path d="M407.31 324.3C409.45 324.64 414.62 327.79 417.31 330.94" stroke="#1B3C87" stroke-width="3.69" stroke-linecap="round" stroke-linejoin="round"/>
<path d="M401.32 331.89C403.45 332.23 408.63 335.38 411.32 338.53" stroke="#1B3C87" stroke-width="3.69" stroke-linecap="round" stroke-linejoin="round"/>
<path d="M390.09 446.94C390.26 442.14 402.09 359.36 407.32 343.09" stroke="#1B3C87" stroke-width="3.69" stroke-linecap="round" stroke-linejoin="round"/>
<path d="M415.5 353.12C422.78 345.33 431.6 336.96 438.68 333.57" stroke="#1B3C87" stroke-width="3.69" stroke-linecap="round" stroke-linejoin="round"/>
<path d="M185.91 395L231.91 469.76" stroke="#1B3C87" stroke-width="3.69" stroke-linecap="round" stroke-linejoin="round"/>
<path d="M516.88 511.33C516.88 517.5 507.09 560.64 437.56 560.64C430.28 560.64 375.47 558.45 374.45 558.45C374.45 571.28 409.58 654.79 412.93 660.45" stroke="#1B3C87" stroke-width="3.69" stroke-linecap="round" stroke-linejoin="round"/>
<path d="M323 493C312.79 496.82 273.73 507.75 273.73 541.86C273.73 557.16 372.96 680.79 381.44 688.48" stroke="#1B3C87" stroke-width="3.69" stroke-linecap="round" stroke-linejoin="round"/>
<path d="M376.49 694L422 665" stroke="#1B3C87" stroke-width="3.69" stroke-linecap="round" stroke-linejoin="round"/>
<path d="M381.45 702L428.38 673.57" stroke="#1B3C87" stroke-width="3.69" stroke-linecap="round" stroke-linejoin="round"/>
<path d="M400.22 631.33L429.38 657.68" stroke="#1B3C87" stroke-width="3.69" stroke-linecap="round" stroke-linejoin="round"/>
<path d="M417.33 573.17L460.73 627.08" stroke="#1B3C87" stroke-width="3.69" stroke-linecap="round" stroke-linejoin="round"/>
<path d="M465.76 623.21L427.41 660.48" stroke="#1B3C87" stroke-width="3.69" stroke-linecap="round" stroke-linejoin="round"/>
<path d="M470.6 630.4L432.25 667.67" stroke="#1B3C87" stroke-width="3.69" stroke-linecap="round" stroke-linejoin="round"/>
<path d="M165.11 755.52V788.66" stroke="#1B3C87" stroke-width="3.69" stroke-linecap="round" stroke-linejoin="round"/>
<path d="M165.11 493V694" stroke="#1B3C87" stroke-width="3.69" stroke-linecap="round" stroke-linejoin="round"/>
<path d="M318.15 493V788.66" stroke="#1B3C87" stroke-width="3.69" stroke-linecap="round" stroke-linejoin="round"/>
<path d="M496.12 341.43C522.91 350.75 509.27 408.13 501.73 410.07C494.19 412.01 448.73 394.02 447.31 389.18C445.89 384.34 464.83 330.53 496.12 341.43Z" fill="#02232C"/>
<path d="M462.11 344.88C469.86 337.11 479.66 332.43 491.11 336.42C517.9 345.74 504.26 403.12 496.71 405.06C489.16 407 443.71 389.01 442.29 384.17C441.95 383.03 442.74 379.17 444.57 374.05" stroke="#1B3C87" stroke-width="3.69" stroke-linecap="round" stroke-linejoin="round"/>
<path d="M450.44 392C448.26 395.2 436.19 434.23 436.19 434.23C436.19 434.23 350.92 471 346.67 472.9C345.12 470.78 340.02 466.9 329.67 466.9C310.72 466.9 307.44 479.47 307.44 482.17C307.44 484.87 336.25 490.87 343.98 490.68C351.71 490.49 459.8 474.05 463.66 472.12C467.52 470.19 493.39 409.12 493.39 409.12C486.39 408.75 454.12 398.76 450.46 392.01" fill="white"/>
<path d="M396.68 477.6C369.4 481.77 342.68 485.6 338.95 485.68C331.22 485.88 302.41 479.88 302.41 477.17C302.41 474.46 305.69 461.9 324.64 461.9C335.01 461.9 340.11 465.77 341.64 467.9C345.89 465.97 431.16 429.23 431.16 429.23C431.16 429.23 443.23 390.23 445.41 387" stroke="#1B3C87" stroke-width="3.69" stroke-linecap="round" stroke-linejoin="round"/>
<path d="M488.36 404.1C488.36 404.1 462.5 465.19 458.63 467.1C457.53 467.65 448 469.38 434.75 471.56" stroke="#1B3C87" stroke-width="3.69" stroke-linecap="round" stroke-linejoin="round"/>
<path d="M578.86 562.86H413.83V578.17H578.86V562.86Z" fill="#1C4F4A"/>
<path d="M512.09 573.17H408.81V557.86H573.81V573.17H544.81" stroke="#1B3C87" stroke-width="3.69" stroke-linecap="round" stroke-linejoin="round"/>
<path d="M371.47 484.67H120.38V497.27H371.47V484.67Z" fill="#1C4F4A"/>
<path d="M185.91 480.38H367.18V493H116.09V480.4H154.73" stroke="#1B3C87" stroke-width="3.69" stroke-linecap="round" stroke-linejoin="round"/>
<path d="M324.65 474.07H236.22V484.67H324.65V474.07Z" fill="#D6E3DA"/>
<path d="M320.36 469.78H231.93V480.38H320.36V469.78Z" stroke="#1B3C87" stroke-width="3.69" stroke-linecap="round" stroke-linejoin="round"/>
<path d="M390.07 704.83L419.07 736.54L403.21 780.54L451.86 742.71L423.66 684.54" fill="white"/>
<path d="M435.52 714.32L418.63 679.5" stroke="#1B3C87" stroke-width="3.69" stroke-linecap="round" stroke-linejoin="round"/>
<path d="M385.07 699.82L414.07 731.53L398.22 775.53L446.86 737.7L441.9 727.5" stroke="#1B3C87" stroke-width="3.69" stroke-linecap="round" stroke-linejoin="round"/>
<path d="M469.53 641.31L485.68 668.73L496.83 674.53L475.61 723.81L470.77 692.81L442.77 667.28" fill="white"/>
<path d="M445 668.8L437.85 662.27" stroke="#1B3C87" stroke-width="3.69" stroke-linecap="round" stroke-linejoin="round"/>
<path d="M464.52 636.31L480.67 663.72L491.82 669.53L470.6 718.81L465.76 687.81L459.76 682.33" stroke="#1B3C87" stroke-width="3.69" stroke-linecap="round" stroke-linejoin="round"/>
<path d="M451.43 573.17V787.17" stroke="#1B3C87" stroke-width="3.69" stroke-linecap="round" stroke-linejoin="round"/>
<path d="M531.24 654.85V787.2" stroke="#1B3C87" stroke-width="3.69" stroke-linecap="round" stroke-linejoin="round"/>
<path d="M531.24 573.17V618.25" stroke="#1B3C87" stroke-width="3.69" stroke-linecap="round" stroke-linejoin="round"/>
<path d="M403.21 278.51C403.7 280.21 404.84 281.37 405.76 281.1C406.68 280.83 407.04 279.25 406.55 277.56C406.06 275.87 404.93 274.7 404 275C403.07 275.3 402.73 276.85 403.21 278.54" fill="#1B3C87"/>
<path d="M392.11 297.2C391.989 297.831 391.795 298.445 391.53 299.03" stroke="#1B3C87" stroke-width="3.14" stroke-linecap="round" stroke-linejoin="round"/>
<path d="M391.05 287.29C391.844 289.497 392.283 291.816 392.35 294.16" stroke="#1B3C87" stroke-width="3.14" stroke-linecap="round" stroke-linejoin="round"/>
<path d="M418.41 296.24C418.7 298.48 417.13 301.96 414.1 303.99" stroke="#1B3C87" stroke-width="3.14" stroke-linecap="round" stroke-linejoin="round"/>
<path d="M284.41 254.42H20.98V333.9H284.41V254.42Z" fill="#D7E0FF"/>
<path d="M261.75 293.76C261.752 298.349 260.393 302.835 257.845 306.652C255.297 310.468 251.674 313.444 247.435 315.201C243.196 316.959 238.531 317.419 234.03 316.525C229.529 315.631 225.394 313.423 222.149 310.178C218.903 306.934 216.693 302.8 215.797 298.3C214.901 293.799 215.359 289.134 217.115 284.894C218.871 280.654 221.844 277.03 225.66 274.481C229.475 271.931 233.961 270.57 238.55 270.57C244.701 270.57 250.601 273.013 254.951 277.362C259.302 281.71 261.747 287.609 261.75 293.76Z" fill="#B2C3FB"/>
<path d="M194.73 280.31H63.79" stroke="#EAF0FF" stroke-width="3.69" stroke-linecap="round" stroke-linejoin="round"/>
<path d="M194.73 307.22H125.35" stroke="#EAF0FF" stroke-width="3.69" stroke-linecap="round" stroke-linejoin="round"/>
<path d="M374.46 0H217.9V198.66H374.46V0Z" fill="#EAF0FF"/>
<path d="M278.75 71.23L324.65 179.12L421 112.23L278.75 71.23Z" stroke="#B2C3FB" stroke-width="3" stroke-linecap="round" stroke-linejoin="round"/>
<path d="M142.15 99.87H52V137.52H142.15V99.87Z" fill="#EAF0FF"/>
<path d="M100.2 146.41H10.05V184.06H100.2V146.41Z" fill="#EAF0FF"/>
</g>
<defs>
<clipPath id="clip0_44_2">
<rect width="788.89" height="790.5" fill="white"/>
</clipPath>
</defs>
</svg>
